<svg width="32" height="32" viewBox="0 0 32 32" fill="none" xmlns="http://www.w3.org/2000/svg">
<g clip-path="url(#clip0_607_42)">
<rect width="32" height="32" fill="#03101F"/>
<g clip-path="url(#clip1_607_42)">
<path fill-rule="evenodd" clip-rule="evenodd" d="M4 16.0002V28.0005L16.0188 27.9815L28.0375 27.9625L28.0565 15.9813L28.0755 4H16.0377H4V16.0002ZM4.0366 16.0375C4.0366 22.6375 4.04545 25.3264 4.05625 22.0128C4.06705 18.6993 4.06705 13.2993 4.05625 10.0128C4.04545 6.7264 4.0366 9.4375 4.0366 16.0375ZM13 8.875V9.25H12.625H12.25V9.625V10H12.625H13V10.375V10.75H13.375H13.75V10.375V10H14.125H14.5V9.625V9.25H14.125H13.75V8.875V8.5H13.375H13V8.875ZM13 9.625V10H13.375H13.75V9.625V9.25H13.375H13V9.625ZM19 9.625V10H19.75H20.5V10.375V10.75H20.125H19.75V11.125V11.5H19H18.25V11.875V12.25H17.875H17.5V12.625V13H17.125H16.75V13.75V14.5H16.375H16V15.25V16H15.625H15.25V16.75V17.5H14.875H14.5V17.875V18.25H14.125H13.75V18.625V19H13.375H13V19.375V19.75H11.5H10V19.375V19H9.25H8.5V19.75V20.5H8.875H9.25V20.875V21.25H10H10.75V21.625V22H11.5H12.25V22.375V22.75H14.5H16.75V22.375V22H17.5H18.25V21.625V21.25H18.625H19V20.875V20.5H19.375H19.75V20.125V19.75H20.125H20.5V19V18.25H20.875H21.25V17.5V16.75H21.625H22V13.75V10.75H21.625H21.25V10V9.25H20.125H19V9.625ZM8.5 14.125V14.5H8.875H9.25V14.875V15.25H8.875H8.5V15.625V16H8.875H9.25V15.625V15.25H9.625H10V15.625V16H10.375H10.75V15.625V15.25H10.375H10V14.875V14.5H10.375H10.75V14.125V13.75H10.375H10V14.125V14.5H9.625H9.25V14.125V13.75H8.875H8.5V14.125ZM18.25 14.125V14.5H17.875H17.5V15.25V16H17.125H16.75V16.375V16.75H16.375H16V17.5V18.25H15.625H15.25V18.625V19H14.875H14.5V19.375V19.75H14.125H13.75V20.125V20.5H14.125H14.5V20.125V19.75H14.875H15.25V19.375V19H15.625H16V18.625V18.25H16.375H16.75V17.5V16.75H17.125H17.5V16.375V16H17.875H18.25V15.25V14.5H18.625H19V14.125V13.75H18.625H18.25V14.125ZM22 21.625V22H21.625H21.25V22.375V22.75H21.625H22V23.125V23.5H22.375H22.75V23.125V22.75H23.125H23.5V22.375V22H23.125H22.75V21.625V21.25H22.375H22V21.625Z" fill="#F0ECDB"/>
</g>
</g>
<defs>
<clipPath id="clip0_607_42">
<rect width="32" height="32" fill="white"/>
</clipPath>
<clipPath id="clip1_607_42">
<rect width="24" height="24" fill="white" transform="translate(4 4)"/>
</clipPath>
</defs>
</svg>
