<svg width="32" height="32" viewBox="0 0 32 32" fill="none" xmlns="http://www.w3.org/2000/svg">
<path fill-rule="evenodd" clip-rule="evenodd" d="M0 16.0003V32.0006L16.025 31.9753L32.05 31.95L32.0753 15.975L32.1006 0H16.0503H0V16.0003ZM0.0488 16.05C0.0488 24.85 0.0606 28.4352 0.075 24.0171C0.0894 19.599 0.0894 12.399 0.075 8.0171C0.0606 3.6352 0.0488 7.25 0.0488 16.05ZM12 6.5V7H11.5H11V7.5V8H11.5H12V8.5V9H12.5H13V8.5V8H13.5H14V7.5V7H13.5H13V6.5V6H12.5H12V6.5ZM12 7.5V8H12.5H13V7.5V7H12.5H12V7.5ZM20 7.5V8H21H22V8.5V9H21.5H21V9.5V10H20H19V10.5V11H18.5H18V11.5V12H17.5H17V13V14H16.5H16V15V16H15.5H15V17V18H14.5H14V18.5V19H13.5H13V19.5V20H12.5H12V20.5V21H10H8V20.5V20H7H6V21V22H6.5H7V22.5V23H8H9V23.5V24H10H11V24.5V25H14H17V24.5V24H18H19V23.5V23H19.5H20V22.5V22H20.5H21V21.5V21H21.5H22V20V19H22.5H23V18V17H23.5H24V13V9H23.5H23V8V7H21.5H20V7.5ZM6 13.5V14H6.5H7V14.5V15H6.5H6V15.5V16H6.5H7V15.5V15H7.5H8V15.5V16H8.5H9V15.5V15H8.5H8V14.5V14H8.5H9V13.5V13H8.5H8V13.5V14H7.5H7V13.5V13H6.5H6V13.5ZM19 13.5V14H18.5H18V15V16H17.5H17V16.5V17H16.5H16V18V19H15.5H15V19.5V20H14.5H14V20.5V21H13.5H13V21.5V22H13.5H14V21.5V21H14.5H15V20.5V20H15.5H16V19.5V19H16.5H17V18V17H17.5H18V16.5V16H18.5H19V15V14H19.5H20V13.5V13H19.5H19V13.5ZM24 23.5V24H23.5H23V24.5V25H23.5H24V25.5V26H24.5H25V25.5V25H25.5H26V24.5V24H25.5H25V23.5V23H24.5H24V23.5Z" fill="black"/>
</svg>
